<mxfile host="app.diagrams.net" agent="Mozilla/5.0 (Windows NT 10.0; Win64; x64) AppleWebKit/537.36 (KHTML, like Gecko) Chrome/130.0.0.0 Safari/537.36 Edg/130.0.0.0" version="24.8.4">
  <diagram name="PÃ¡gina-1" id="5BdmWcABMLE6zPCTc5k9">
    <mxGraphModel dx="2012" dy="566" grid="1" gridSize="10" guides="1" tooltips="1" connect="1" arrows="1" fold="1" page="1" pageScale="1" pageWidth="827" pageHeight="1169" math="0" shadow="0">
      <root>
        <mxCell id="0" />
        <mxCell id="1" parent="0" />
        <object label="" ESP32="" id="jmQkS_m5FV4tJ4RguuTS-18">
          <mxCell style="sketch=0;outlineConnect=0;fontColor=#232F3E;gradientColor=none;fillColor=#7AA116;strokeColor=none;dashed=0;verticalLabelPosition=bottom;verticalAlign=top;align=center;html=1;fontSize=12;fontStyle=0;aspect=fixed;pointerEvents=1;shape=mxgraph.aws4.hardware_board;" vertex="1" parent="1">
            <mxGeometry x="-112" y="380" width="78" height="78" as="geometry" />
          </mxCell>
        </object>
        <mxCell id="jmQkS_m5FV4tJ4RguuTS-31" value="" style="sketch=0;outlineConnect=0;fontColor=#232F3E;gradientColor=none;fillColor=#7AA116;strokeColor=none;dashed=0;verticalLabelPosition=bottom;verticalAlign=top;align=center;html=1;fontSize=12;fontStyle=0;aspect=fixed;pointerEvents=1;shape=mxgraph.aws4.hardware_board;" vertex="1" parent="1">
          <mxGeometry x="870" y="562" width="78" height="78" as="geometry" />
        </mxCell>
        <mxCell id="jmQkS_m5FV4tJ4RguuTS-34" value="&lt;font style=&quot;font-size: 18px;&quot;&gt;&lt;b&gt;ESP32&lt;/b&gt;&lt;/font&gt;" style="text;html=1;align=center;verticalAlign=middle;resizable=0;points=[];autosize=1;strokeColor=none;fillColor=none;" vertex="1" parent="1">
          <mxGeometry x="-112" y="460" width="80" height="40" as="geometry" />
        </mxCell>
        <mxCell id="jmQkS_m5FV4tJ4RguuTS-74" value="&lt;font style=&quot;font-size: 18px;&quot;&gt;&lt;b&gt;ESP32&lt;/b&gt;&lt;/font&gt;" style="text;html=1;align=center;verticalAlign=middle;resizable=0;points=[];autosize=1;strokeColor=none;fillColor=none;" vertex="1" parent="1">
          <mxGeometry x="869" y="638" width="80" height="40" as="geometry" />
        </mxCell>
        <mxCell id="jmQkS_m5FV4tJ4RguuTS-16" value="" style="sketch=0;outlineConnect=0;fontColor=#232F3E;gradientColor=none;fillColor=#7AA116;strokeColor=none;dashed=0;verticalLabelPosition=bottom;verticalAlign=top;align=center;html=1;fontSize=12;fontStyle=0;aspect=fixed;pointerEvents=1;shape=mxgraph.aws4.mqtt_protocol;" vertex="1" parent="1">
          <mxGeometry x="30" y="380" width="78" height="78" as="geometry" />
        </mxCell>
        <mxCell id="jmQkS_m5FV4tJ4RguuTS-30" value="" style="sketch=0;points=[[0,0,0],[0.25,0,0],[0.5,0,0],[0.75,0,0],[1,0,0],[0,1,0],[0.25,1,0],[0.5,1,0],[0.75,1,0],[1,1,0],[0,0.25,0],[0,0.5,0],[0,0.75,0],[1,0.25,0],[1,0.5,0],[1,0.75,0]];outlineConnect=0;fontColor=#232F3E;fillColor=#7AA116;strokeColor=#ffffff;dashed=0;verticalLabelPosition=bottom;verticalAlign=top;align=center;html=1;fontSize=12;fontStyle=0;aspect=fixed;shape=mxgraph.aws4.resourceIcon;resIcon=mxgraph.aws4.iot_core;" vertex="1" parent="1">
          <mxGeometry x="170" y="380" width="78" height="78" as="geometry" />
        </mxCell>
        <mxCell id="jmQkS_m5FV4tJ4RguuTS-19" value="" style="sketch=0;outlineConnect=0;fontColor=#232F3E;gradientColor=none;fillColor=#7AA116;strokeColor=none;dashed=0;verticalLabelPosition=bottom;verticalAlign=top;align=center;html=1;fontSize=12;fontStyle=0;aspect=fixed;pointerEvents=1;shape=mxgraph.aws4.rule;" vertex="1" parent="1">
          <mxGeometry x="319.5" y="380" width="46" height="78" as="geometry" />
        </mxCell>
        <mxCell id="jmQkS_m5FV4tJ4RguuTS-20" value="" style="sketch=0;outlineConnect=0;fontColor=#232F3E;gradientColor=none;fillColor=#7AA116;strokeColor=none;dashed=0;verticalLabelPosition=bottom;verticalAlign=top;align=center;html=1;fontSize=12;fontStyle=0;aspect=fixed;pointerEvents=1;shape=mxgraph.aws4.action;" vertex="1" parent="1">
          <mxGeometry x="414" y="380" width="78" height="78" as="geometry" />
        </mxCell>
        <mxCell id="jmQkS_m5FV4tJ4RguuTS-12" value="" style="sketch=0;outlineConnect=0;fontColor=#232F3E;gradientColor=none;fillColor=#ED7100;strokeColor=none;dashed=0;verticalLabelPosition=bottom;verticalAlign=top;align=center;html=1;fontSize=12;fontStyle=0;aspect=fixed;pointerEvents=1;shape=mxgraph.aws4.lambda_function;" vertex="1" parent="1">
          <mxGeometry x="540" y="380" width="87" height="87" as="geometry" />
        </mxCell>
        <mxCell id="jmQkS_m5FV4tJ4RguuTS-21" value="" style="sketch=0;outlineConnect=0;gradientColor=green;fontColor=#545B64;strokeColor=green;fillColor=#879196;dashed=0;verticalLabelPosition=bottom;verticalAlign=top;align=center;html=1;fontSize=12;fontStyle=0;aspect=fixed;shape=mxgraph.aws4.illustration_desktop;pointerEvents=1" vertex="1" parent="1">
          <mxGeometry x="690" y="380" width="100" height="91" as="geometry" />
        </mxCell>
        <mxCell id="jmQkS_m5FV4tJ4RguuTS-22" value="" style="sketch=0;outlineConnect=0;gradientColor=green;fontColor=#545B64;strokeColor=green;fillColor=#879196;dashed=0;verticalLabelPosition=bottom;verticalAlign=top;align=center;html=1;fontSize=12;fontStyle=0;aspect=fixed;shape=mxgraph.aws4.illustration_desktop;pointerEvents=1" vertex="1" parent="1">
          <mxGeometry x="166" y="560" width="100" height="91" as="geometry" />
        </mxCell>
        <mxCell id="jmQkS_m5FV4tJ4RguuTS-26" value="" style="sketch=0;outlineConnect=0;fontColor=#232F3E;gradientColor=none;fillColor=#7AA116;strokeColor=none;dashed=0;verticalLabelPosition=bottom;verticalAlign=top;align=center;html=1;fontSize=12;fontStyle=0;aspect=fixed;pointerEvents=1;shape=mxgraph.aws4.rule;" vertex="1" parent="1">
          <mxGeometry x="477" y="566.5" width="46" height="78" as="geometry" />
        </mxCell>
        <mxCell id="jmQkS_m5FV4tJ4RguuTS-36" value="&lt;font style=&quot;font-size: 18px;&quot;&gt;&lt;b&gt;IoT MQTT&amp;nbsp;&lt;/b&gt;&lt;/font&gt;&lt;div&gt;&lt;font size=&quot;3&quot; style=&quot;&quot;&gt;&lt;b&gt;protocol&lt;/b&gt;&lt;/font&gt;&lt;/div&gt;" style="text;html=1;align=center;verticalAlign=middle;resizable=0;points=[];autosize=1;strokeColor=none;fillColor=none;" vertex="1" parent="1">
          <mxGeometry x="14" y="480" width="110" height="50" as="geometry" />
        </mxCell>
        <mxCell id="jmQkS_m5FV4tJ4RguuTS-38" value="&lt;font style=&quot;font-size: 18px;&quot;&gt;&lt;b&gt;AWS IoT&lt;/b&gt;&lt;/font&gt;&lt;div&gt;&lt;font size=&quot;3&quot; style=&quot;&quot;&gt;&lt;b&gt;Core&lt;/b&gt;&lt;/font&gt;&lt;/div&gt;" style="text;html=1;align=center;verticalAlign=middle;resizable=0;points=[];autosize=1;strokeColor=none;fillColor=none;" vertex="1" parent="1">
          <mxGeometry x="159" y="480" width="100" height="50" as="geometry" />
        </mxCell>
        <mxCell id="jmQkS_m5FV4tJ4RguuTS-40" value="&lt;font style=&quot;font-size: 18px;&quot;&gt;&lt;b&gt;Invoke&amp;nbsp;&lt;/b&gt;&lt;/font&gt;&lt;div&gt;&lt;font size=&quot;3&quot; style=&quot;&quot;&gt;&lt;b&gt;Lambda&amp;nbsp;&lt;/b&gt;&lt;/font&gt;&lt;/div&gt;&lt;div&gt;&lt;font size=&quot;3&quot; style=&quot;&quot;&gt;&lt;b&gt;Function&lt;/b&gt;&lt;/font&gt;&lt;/div&gt;" style="text;html=1;align=center;verticalAlign=middle;resizable=0;points=[];autosize=1;strokeColor=none;fillColor=none;" vertex="1" parent="1">
          <mxGeometry x="408" y="467" width="90" height="70" as="geometry" />
        </mxCell>
        <mxCell id="jmQkS_m5FV4tJ4RguuTS-45" value="&lt;font style=&quot;font-size: 18px;&quot;&gt;&lt;b&gt;Display panel&lt;/b&gt;&lt;/font&gt;" style="text;html=1;align=center;verticalAlign=middle;resizable=0;points=[];autosize=1;strokeColor=none;fillColor=none;" vertex="1" parent="1">
          <mxGeometry x="670" y="480" width="140" height="40" as="geometry" />
        </mxCell>
        <mxCell id="jmQkS_m5FV4tJ4RguuTS-39" value="&lt;font style=&quot;font-size: 18px;&quot;&gt;&lt;b&gt;IoT rule&amp;nbsp;&lt;/b&gt;&lt;/font&gt;&lt;div&gt;&lt;font size=&quot;3&quot; style=&quot;&quot;&gt;&lt;b&gt;esp32/pub&lt;/b&gt;&lt;/font&gt;&lt;/div&gt;" style="text;html=1;align=center;verticalAlign=middle;resizable=0;points=[];autosize=1;strokeColor=none;fillColor=none;" vertex="1" parent="1">
          <mxGeometry x="292.5" y="467" width="100" height="50" as="geometry" />
        </mxCell>
        <mxCell id="jmQkS_m5FV4tJ4RguuTS-41" value="&lt;font style=&quot;font-size: 18px;&quot;&gt;&lt;b&gt;TopicSubscriber&lt;/b&gt;&lt;/font&gt;" style="text;html=1;align=center;verticalAlign=middle;resizable=0;points=[];autosize=1;strokeColor=none;fillColor=none;" vertex="1" parent="1">
          <mxGeometry x="503.5" y="480" width="160" height="40" as="geometry" />
        </mxCell>
        <mxCell id="jmQkS_m5FV4tJ4RguuTS-66" value="" style="sketch=0;outlineConnect=0;fontColor=#232F3E;gradientColor=none;fillColor=#ED7100;strokeColor=none;dashed=0;verticalLabelPosition=bottom;verticalAlign=top;align=center;html=1;fontSize=12;fontStyle=0;aspect=fixed;pointerEvents=1;shape=mxgraph.aws4.lambda_function;" vertex="1" parent="1">
          <mxGeometry x="319.5" y="560" width="87" height="87" as="geometry" />
        </mxCell>
        <mxCell id="jmQkS_m5FV4tJ4RguuTS-68" value="&lt;font style=&quot;font-size: 18px;&quot;&gt;&lt;b&gt;Display panel&lt;/b&gt;&lt;/font&gt;" style="text;html=1;align=center;verticalAlign=middle;resizable=0;points=[];autosize=1;strokeColor=none;fillColor=none;" vertex="1" parent="1">
          <mxGeometry x="146" y="661" width="140" height="40" as="geometry" />
        </mxCell>
        <mxCell id="jmQkS_m5FV4tJ4RguuTS-70" value="&lt;font style=&quot;font-size: 18px;&quot;&gt;&lt;b&gt;TopicSubscriber&lt;/b&gt;&lt;/font&gt;" style="text;html=1;align=center;verticalAlign=middle;resizable=0;points=[];autosize=1;strokeColor=none;fillColor=none;" vertex="1" parent="1">
          <mxGeometry x="283" y="651" width="160" height="40" as="geometry" />
        </mxCell>
        <mxCell id="jmQkS_m5FV4tJ4RguuTS-71" value="&lt;font style=&quot;font-size: 18px;&quot;&gt;&lt;b&gt;IoT rule&amp;nbsp;&lt;/b&gt;&lt;/font&gt;&lt;div&gt;&lt;font size=&quot;3&quot; style=&quot;&quot;&gt;&lt;b&gt;esp32/pub&lt;/b&gt;&lt;/font&gt;&lt;/div&gt;" style="text;html=1;align=center;verticalAlign=middle;resizable=0;points=[];autosize=1;strokeColor=none;fillColor=none;" vertex="1" parent="1">
          <mxGeometry x="450" y="651" width="100" height="50" as="geometry" />
        </mxCell>
        <mxCell id="jmQkS_m5FV4tJ4RguuTS-72" value="&lt;font style=&quot;font-size: 18px;&quot;&gt;&lt;b&gt;AWS IoT&lt;/b&gt;&lt;/font&gt;&lt;div&gt;&lt;font size=&quot;3&quot; style=&quot;&quot;&gt;&lt;b&gt;Core&lt;/b&gt;&lt;/font&gt;&lt;/div&gt;" style="text;html=1;align=center;verticalAlign=middle;resizable=0;points=[];autosize=1;strokeColor=none;fillColor=none;" vertex="1" parent="1">
          <mxGeometry x="554" y="656" width="100" height="50" as="geometry" />
        </mxCell>
        <mxCell id="jmQkS_m5FV4tJ4RguuTS-77" value="AWS Cloud" style="points=[[0,0],[0.25,0],[0.5,0],[0.75,0],[1,0],[1,0.25],[1,0.5],[1,0.75],[1,1],[0.75,1],[0.5,1],[0.25,1],[0,1],[0,0.75],[0,0.5],[0,0.25]];outlineConnect=0;gradientColor=none;html=1;whiteSpace=wrap;fontSize=12;fontStyle=0;container=1;pointerEvents=0;collapsible=0;recursiveResize=0;shape=mxgraph.aws4.group;grIcon=mxgraph.aws4.group_aws_cloud_alt;strokeColor=#232F3E;fillColor=none;verticalAlign=top;align=left;spacingLeft=30;fontColor=#232F3E;dashed=0;" vertex="1" parent="1">
          <mxGeometry y="340" width="830" height="380" as="geometry" />
        </mxCell>
        <mxCell id="jmQkS_m5FV4tJ4RguuTS-88" value="" style="edgeStyle=orthogonalEdgeStyle;html=1;endArrow=openThin;elbow=vertical;startArrow=none;endFill=0;strokeColor=#545B64;rounded=0;" edge="1" parent="jmQkS_m5FV4tJ4RguuTS-77">
          <mxGeometry width="100" relative="1" as="geometry">
            <mxPoint x="120" y="80" as="sourcePoint" />
            <mxPoint x="160" y="80" as="targetPoint" />
            <Array as="points">
              <mxPoint x="150" y="80" />
              <mxPoint x="150" y="80" />
            </Array>
          </mxGeometry>
        </mxCell>
        <mxCell id="jmQkS_m5FV4tJ4RguuTS-90" value="" style="edgeStyle=orthogonalEdgeStyle;html=1;endArrow=openThin;elbow=vertical;startArrow=none;endFill=0;strokeColor=#545B64;rounded=0;" edge="1" parent="jmQkS_m5FV4tJ4RguuTS-77">
          <mxGeometry width="100" relative="1" as="geometry">
            <mxPoint x="260" y="80" as="sourcePoint" />
            <mxPoint x="310" y="80" as="targetPoint" />
          </mxGeometry>
        </mxCell>
        <mxCell id="jmQkS_m5FV4tJ4RguuTS-92" value="" style="edgeStyle=orthogonalEdgeStyle;html=1;endArrow=openThin;elbow=vertical;startArrow=none;endFill=0;strokeColor=#545B64;rounded=0;" edge="1" parent="jmQkS_m5FV4tJ4RguuTS-77">
          <mxGeometry width="100" relative="1" as="geometry">
            <mxPoint x="370" y="80" as="sourcePoint" />
            <mxPoint x="400" y="80" as="targetPoint" />
          </mxGeometry>
        </mxCell>
        <mxCell id="jmQkS_m5FV4tJ4RguuTS-93" value="" style="edgeStyle=orthogonalEdgeStyle;html=1;endArrow=openThin;elbow=vertical;startArrow=none;endFill=0;strokeColor=#545B64;rounded=0;" edge="1" parent="jmQkS_m5FV4tJ4RguuTS-77">
          <mxGeometry width="100" relative="1" as="geometry">
            <mxPoint x="500" y="80" as="sourcePoint" />
            <mxPoint x="530" y="80" as="targetPoint" />
            <Array as="points">
              <mxPoint x="510" y="80" />
              <mxPoint x="510" y="80" />
            </Array>
          </mxGeometry>
        </mxCell>
        <mxCell id="jmQkS_m5FV4tJ4RguuTS-94" value="" style="edgeStyle=orthogonalEdgeStyle;html=1;endArrow=openThin;elbow=vertical;startArrow=none;endFill=0;strokeColor=#545B64;rounded=0;" edge="1" parent="jmQkS_m5FV4tJ4RguuTS-77">
          <mxGeometry width="100" relative="1" as="geometry">
            <mxPoint x="640" y="80" as="sourcePoint" />
            <mxPoint x="680" y="80" as="targetPoint" />
          </mxGeometry>
        </mxCell>
        <mxCell id="jmQkS_m5FV4tJ4RguuTS-97" value="" style="edgeStyle=orthogonalEdgeStyle;html=1;endArrow=openThin;elbow=vertical;startArrow=none;endFill=0;strokeColor=#545B64;rounded=0;" edge="1" parent="jmQkS_m5FV4tJ4RguuTS-77">
          <mxGeometry width="100" relative="1" as="geometry">
            <mxPoint x="111" y="260.71" as="sourcePoint" />
            <mxPoint x="151" y="260.71" as="targetPoint" />
          </mxGeometry>
        </mxCell>
        <mxCell id="jmQkS_m5FV4tJ4RguuTS-98" value="" style="edgeStyle=orthogonalEdgeStyle;html=1;endArrow=openThin;elbow=vertical;startArrow=none;endFill=0;strokeColor=#545B64;rounded=0;" edge="1" parent="jmQkS_m5FV4tJ4RguuTS-77">
          <mxGeometry width="100" relative="1" as="geometry">
            <mxPoint x="270" y="260" as="sourcePoint" />
            <mxPoint x="310" y="260" as="targetPoint" />
          </mxGeometry>
        </mxCell>
        <mxCell id="jmQkS_m5FV4tJ4RguuTS-99" value="" style="edgeStyle=orthogonalEdgeStyle;html=1;endArrow=openThin;elbow=vertical;startArrow=none;endFill=0;strokeColor=#545B64;rounded=0;" edge="1" parent="jmQkS_m5FV4tJ4RguuTS-77">
          <mxGeometry width="100" relative="1" as="geometry">
            <mxPoint x="410" y="260" as="sourcePoint" />
            <mxPoint x="470" y="260" as="targetPoint" />
          </mxGeometry>
        </mxCell>
        <mxCell id="jmQkS_m5FV4tJ4RguuTS-15" value="" style="sketch=0;points=[[0,0,0],[0.25,0,0],[0.5,0,0],[0.75,0,0],[1,0,0],[0,1,0],[0.25,1,0],[0.5,1,0],[0.75,1,0],[1,1,0],[0,0.25,0],[0,0.5,0],[0,0.75,0],[1,0.25,0],[1,0.5,0],[1,0.75,0]];outlineConnect=0;fontColor=#232F3E;fillColor=#7AA116;strokeColor=#ffffff;dashed=0;verticalLabelPosition=bottom;verticalAlign=top;align=center;html=1;fontSize=12;fontStyle=0;aspect=fixed;shape=mxgraph.aws4.resourceIcon;resIcon=mxgraph.aws4.iot_core;" vertex="1" parent="jmQkS_m5FV4tJ4RguuTS-77">
          <mxGeometry x="580" y="222" width="78" height="78" as="geometry" />
        </mxCell>
        <mxCell id="jmQkS_m5FV4tJ4RguuTS-27" value="" style="sketch=0;outlineConnect=0;fontColor=#232F3E;gradientColor=none;fillColor=#7AA116;strokeColor=none;dashed=0;verticalLabelPosition=bottom;verticalAlign=top;align=center;html=1;fontSize=12;fontStyle=0;aspect=fixed;pointerEvents=1;shape=mxgraph.aws4.mqtt_protocol;" vertex="1" parent="jmQkS_m5FV4tJ4RguuTS-77">
          <mxGeometry x="720" y="222" width="78" height="78" as="geometry" />
        </mxCell>
        <mxCell id="jmQkS_m5FV4tJ4RguuTS-73" value="&lt;font style=&quot;font-size: 18px;&quot;&gt;&lt;b&gt;IoT MQTT&amp;nbsp;&lt;/b&gt;&lt;/font&gt;&lt;div&gt;&lt;font size=&quot;3&quot; style=&quot;&quot;&gt;&lt;b&gt;protocol&lt;/b&gt;&lt;/font&gt;&lt;/div&gt;" style="text;html=1;align=center;verticalAlign=middle;resizable=0;points=[];autosize=1;strokeColor=none;fillColor=none;" vertex="1" parent="jmQkS_m5FV4tJ4RguuTS-77">
          <mxGeometry x="704" y="311" width="110" height="50" as="geometry" />
        </mxCell>
        <mxCell id="jmQkS_m5FV4tJ4RguuTS-101" value="" style="edgeStyle=orthogonalEdgeStyle;html=1;endArrow=openThin;elbow=vertical;startArrow=none;endFill=0;strokeColor=#545B64;rounded=0;" edge="1" parent="jmQkS_m5FV4tJ4RguuTS-77">
          <mxGeometry width="100" relative="1" as="geometry">
            <mxPoint x="530" y="260" as="sourcePoint" />
            <mxPoint x="570" y="260" as="targetPoint" />
          </mxGeometry>
        </mxCell>
        <mxCell id="jmQkS_m5FV4tJ4RguuTS-103" value="" style="edgeStyle=orthogonalEdgeStyle;html=1;endArrow=openThin;elbow=vertical;startArrow=none;endFill=0;strokeColor=#545B64;rounded=0;" edge="1" parent="jmQkS_m5FV4tJ4RguuTS-77">
          <mxGeometry width="100" relative="1" as="geometry">
            <mxPoint x="670" y="260" as="sourcePoint" />
            <mxPoint x="710" y="260" as="targetPoint" />
          </mxGeometry>
        </mxCell>
        <mxCell id="jmQkS_m5FV4tJ4RguuTS-105" value="" style="edgeStyle=orthogonalEdgeStyle;html=1;endArrow=openThin;elbow=vertical;startArrow=none;endFill=0;strokeColor=#545B64;rounded=0;" edge="1" parent="jmQkS_m5FV4tJ4RguuTS-77">
          <mxGeometry width="100" relative="1" as="geometry">
            <mxPoint x="810" y="260" as="sourcePoint" />
            <mxPoint x="860" y="260" as="targetPoint" />
          </mxGeometry>
        </mxCell>
        <mxCell id="jmQkS_m5FV4tJ4RguuTS-106" value="&lt;font style=&quot;font-size: 11px;&quot;&gt;&lt;b style=&quot;&quot;&gt;/POST&lt;/b&gt;&lt;/font&gt;" style="text;html=1;align=center;verticalAlign=middle;resizable=0;points=[];autosize=1;strokeColor=none;fillColor=none;" vertex="1" parent="jmQkS_m5FV4tJ4RguuTS-77">
          <mxGeometry x="100" y="229.5" width="60" height="30" as="geometry" />
        </mxCell>
        <mxCell id="jmQkS_m5FV4tJ4RguuTS-23" value="" style="sketch=0;outlineConnect=0;fontColor=#232F3E;gradientColor=none;fillColor=#E7157B;strokeColor=none;dashed=0;verticalLabelPosition=bottom;verticalAlign=top;align=center;html=1;fontSize=12;fontStyle=0;aspect=fixed;pointerEvents=1;shape=mxgraph.aws4.endpoint;" vertex="1" parent="jmQkS_m5FV4tJ4RguuTS-77">
          <mxGeometry x="22" y="222" width="78" height="78" as="geometry" />
        </mxCell>
        <mxCell id="jmQkS_m5FV4tJ4RguuTS-67" value="&lt;font style=&quot;font-size: 18px;&quot;&gt;&lt;b&gt;Endpoint&lt;/b&gt;&lt;/font&gt;" style="text;html=1;align=center;verticalAlign=middle;resizable=0;points=[];autosize=1;strokeColor=none;fillColor=none;" vertex="1" parent="jmQkS_m5FV4tJ4RguuTS-77">
          <mxGeometry x="11" y="300" width="100" height="40" as="geometry" />
        </mxCell>
        <mxCell id="jmQkS_m5FV4tJ4RguuTS-104" value="" style="edgeStyle=orthogonalEdgeStyle;html=1;endArrow=openThin;elbow=vertical;startArrow=none;endFill=0;strokeColor=#545B64;rounded=0;" edge="1" parent="1">
          <mxGeometry width="100" relative="1" as="geometry">
            <mxPoint x="-30" y="420" as="sourcePoint" />
            <mxPoint x="20" y="420" as="targetPoint" />
          </mxGeometry>
        </mxCell>
      </root>
    </mxGraphModel>
  </diagram>
</mxfile>
